<?xml version="1.0" encoding="UTF-8"?>
<svg version="1.1" xmlns="http://www.w3.org/2000/svg" width="320" height="400">
<path d="M0 0 C1.65 0 3.3 0 5 0 C5 6.6 5 13.2 5 20 C1.7 20 -1.6 20 -5 20 C-5 23.3 -5 26.6 -5 30 C-6.65 30 -8.3 30 -10 30 C-10 36.6 -10 43.2 -10 50 C-6.7 50 -3.4 50 0 50 C0 45.05 0 40.1 0 35 C1.65 35 3.3 35 5 35 C5 33.35 5 31.7 5 30 C6.65 30 8.3 30 10 30 C10 28.35 10 26.7 10 25 C11.65 25 13.3 25 15 25 C15 23.35 15 21.7 15 20 C19.95 20 24.9 20 30 20 C30 23.3 30 26.6 30 30 C28.35 30 26.7 30 25 30 C25 33.3 25 36.6 25 40 C36.55 40 48.1 40 60 40 C60 38.35 60 36.7 60 35 C64.95 35 69.9 35 75 35 C75 33.35 75 31.7 75 30 C79.95 30 84.9 30 90 30 C90 33.3 90 36.6 90 40 C88.35 40 86.7 40 85 40 C85 41.65 85 43.3 85 45 C83.35 45 81.7 45 80 45 C80 46.65 80 48.3 80 50 C78.35 50 76.7 50 75 50 C75 51.65 75 53.3 75 55 C73.35 55 71.7 55 70 55 C70 59.95 70 64.9 70 70 C76.6 70 83.2 70 90 70 C90 68.35 90 66.7 90 65 C93.3 65 96.6 65 100 65 C100 63.35 100 61.7 100 60 C101.65 60 103.3 60 105 60 C105 58.35 105 56.7 105 55 C106.65 55 108.3 55 110 55 C110 53.35 110 51.7 110 50 C111.65 50 113.3 50 115 50 C115 46.7 115 43.4 115 40 C116.65 40 118.3 40 120 40 C120 33.4 120 26.8 120 20 C121.65 20 123.3 20 125 20 C125 23.3 125 26.6 125 30 C126.65 30 128.3 30 130 30 C130 34.95 130 39.9 130 45 C128.35 45 126.7 45 125 45 C125 51.6 125 58.2 125 65 C128.3 65 131.6 65 135 65 C135 66.65 135 68.3 135 70 C136.65 70 138.3 70 140 70 C140 71.65 140 73.3 140 75 C141.65 75 143.3 75 145 75 C145 81.6 145 88.2 145 95 C143.35 95 141.7 95 140 95 C140 96.65 140 98.3 140 100 C138.35 100 136.7 100 135 100 C135 101.65 135 103.3 135 105 C133.35 105 131.7 105 130 105 C130 106.65 130 108.3 130 110 C128.35 110 126.7 110 125 110 C125 113.3 125 116.6 125 120 C126.65 120 128.3 120 130 120 C130 121.65 130 123.3 130 125 C134.95 125 139.9 125 145 125 C145 123.35 145 121.7 145 120 C146.65 120 148.3 120 150 120 C150 118.35 150 116.7 150 115 C151.65 115 153.3 115 155 115 C155 113.35 155 111.7 155 110 C156.65 110 158.3 110 160 110 C160 108.35 160 106.7 160 105 C161.65 105 163.3 105 165 105 C165 101.7 165 98.4 165 95 C166.65 95 168.3 95 170 95 C170 101.6 170 108.2 170 115 C168.35 115 166.7 115 165 115 C165 118.3 165 121.6 165 125 C163.35 125 161.7 125 160 125 C160 126.65 160 128.3 160 130 C158.35 130 156.7 130 155 130 C155 131.65 155 133.3 155 135 C156.65 135 158.3 135 160 135 C160 136.65 160 138.3 160 140 C161.65 140 163.3 140 165 140 C165 148.25 165 156.5 165 165 C163.35 165 161.7 165 160 165 C160 168.3 160 171.6 160 175 C158.35 175 156.7 175 155 175 C155 176.65 155 178.3 155 180 C153.35 180 151.7 180 150 180 C150 181.65 150 183.3 150 185 C148.35 185 146.7 185 145 185 C145 186.65 145 188.3 145 190 C136.75 190 128.5 190 120 190 C120 191.65 120 193.3 120 195 C129.9 195 139.8 195 150 195 C150 196.65 150 198.3 150 200 C151.65 200 153.3 200 155 200 C155 201.65 155 203.3 155 205 C156.65 205 158.3 205 160 205 C160 206.65 160 208.3 160 210 C161.65 210 163.3 210 165 210 C165 214.95 165 219.9 165 225 C163.35 225 161.7 225 160 225 C160 228.3 160 231.6 160 235 C158.35 235 156.7 235 155 235 C155 236.65 155 238.3 155 240 C158.3 240 161.6 240 165 240 C165 241.65 165 243.3 165 245 C166.65 245 168.3 245 170 245 C170 249.95 170 254.9 170 260 C168.35 260 166.7 260 165 260 C165 261.65 165 263.3 165 265 C163.35 265 161.7 265 160 265 C160 266.65 160 268.3 160 270 C158.35 270 156.7 270 155 270 C155 271.65 155 273.3 155 275 C153.35 275 151.7 275 150 275 C150 276.65 150 278.3 150 280 C146.7 280 143.4 280 140 280 C140 281.65 140 283.3 140 285 C126.8 285 113.6 285 100 285 C100 283.35 100 281.7 100 280 C98.35 280 96.7 280 95 280 C95 278.35 95 276.7 95 275 C93.35 275 91.7 275 90 275 C90 270.05 90 265.1 90 260 C91.65 260 93.3 260 95 260 C95 258.35 95 256.7 95 255 C93.35 255 91.7 255 90 255 C90 253.35 90 251.7 90 250 C86.7 250 83.4 250 80 250 C80 248.35 80 246.7 80 245 C76.7 245 73.4 245 70 245 C70 240.05 70 235.1 70 230 C65.05 230 60.1 230 55 230 C55 231.65 55 233.3 55 235 C51.7 235 48.4 235 45 235 C45 236.65 45 238.3 45 240 C43.35 240 41.7 240 40 240 C40 241.65 40 243.3 40 245 C41.65 245 43.3 245 45 245 C45 249.95 45 254.9 45 260 C43.35 260 41.7 260 40 260 C40 261.65 40 263.3 40 265 C38.35 265 36.7 265 35 265 C35 266.65 35 268.3 35 270 C21.8 270 8.6 270 -5 270 C-5 268.35 -5 266.7 -5 265 C-8.3 265 -11.6 265 -15 265 C-15 263.35 -15 261.7 -15 260 C-16.65 260 -18.3 260 -20 260 C-20 258.35 -20 256.7 -20 255 C-21.65 255 -23.3 255 -25 255 C-25 253.35 -25 251.7 -25 250 C-26.65 250 -28.3 250 -30 250 C-30 248.35 -30 246.7 -30 245 C-31.65 245 -33.3 245 -35 245 C-35 240.05 -35 235.1 -35 230 C-33.35 230 -31.7 230 -30 230 C-30 228.35 -30 226.7 -30 225 C-26.7 225 -23.4 225 -20 225 C-20 223.35 -20 221.7 -20 220 C-21.65 220 -23.3 220 -25 220 C-25 216.7 -25 213.4 -25 210 C-26.65 210 -28.3 210 -30 210 C-30 205.05 -30 200.1 -30 195 C-28.35 195 -26.7 195 -25 195 C-25 193.35 -25 191.7 -25 190 C-23.35 190 -21.7 190 -20 190 C-20 188.35 -20 186.7 -20 185 C-18.35 185 -16.7 185 -15 185 C-15 183.35 -15 181.7 -15 180 C-8.4 180 -1.8 180 5 180 C5 178.35 5 176.7 5 175 C3.35 175 1.7 175 0 175 C0 173.35 0 171.7 0 170 C-1.65 170 -3.3 170 -5 170 C-5 168.35 -5 166.7 -5 165 C-6.65 165 -8.3 165 -10 165 C-10 163.35 -10 161.7 -10 160 C-11.65 160 -13.3 160 -15 160 C-15 158.35 -15 156.7 -15 155 C-16.65 155 -18.3 155 -20 155 C-20 153.35 -20 151.7 -20 150 C-21.65 150 -23.3 150 -25 150 C-25 148.35 -25 146.7 -25 145 C-33.25 145 -41.5 145 -50 145 C-50 146.65 -50 148.3 -50 150 C-51.65 150 -53.3 150 -55 150 C-55 151.65 -55 153.3 -55 155 C-56.65 155 -58.3 155 -60 155 C-60 156.65 -60 158.3 -60 160 C-61.65 160 -63.3 160 -65 160 C-65 161.65 -65 163.3 -65 165 C-66.65 165 -68.3 165 -70 165 C-70 166.65 -70 168.3 -70 170 C-71.65 170 -73.3 170 -75 170 C-75 171.65 -75 173.3 -75 175 C-76.65 175 -78.3 175 -80 175 C-80 176.65 -80 178.3 -80 180 C-86.6 180 -93.2 180 -100 180 C-100 178.35 -100 176.7 -100 175 C-101.65 175 -103.3 175 -105 175 C-105 173.35 -105 171.7 -105 170 C-106.65 170 -108.3 170 -110 170 C-110 168.35 -110 166.7 -110 165 C-111.65 165 -113.3 165 -115 165 C-115 163.35 -115 161.7 -115 160 C-116.65 160 -118.3 160 -120 160 C-120 158.35 -120 156.7 -120 155 C-124.95 155 -129.9 155 -135 155 C-135 153.35 -135 151.7 -135 150 C-131.7 150 -128.4 150 -125 150 C-125 148.35 -125 146.7 -125 145 C-120.05 145 -115.1 145 -110 145 C-110 143.35 -110 141.7 -110 140 C-111.65 140 -113.3 140 -115 140 C-115 138.35 -115 136.7 -115 135 C-118.3 135 -121.6 135 -125 135 C-125 133.35 -125 131.7 -125 130 C-116.75 130 -108.5 130 -100 130 C-100 131.65 -100 133.3 -100 135 C-98.35 135 -96.7 135 -95 135 C-95 131.7 -95 128.4 -95 125 C-91.7 125 -88.4 125 -85 125 C-85 123.35 -85 121.7 -85 120 C-83.35 120 -81.7 120 -80 120 C-80 118.35 -80 116.7 -80 115 C-78.35 115 -76.7 115 -75 115 C-75 113.35 -75 111.7 -75 110 C-73.35 110 -71.7 110 -70 110 C-70 108.35 -70 106.7 -70 105 C-68.35 105 -66.7 105 -65 105 C-65 103.35 -65 101.7 -65 100 C-63.35 100 -61.7 100 -60 100 C-60 98.35 -60 96.7 -60 95 C-46.8 95 -33.6 95 -20 95 C-20 93.35 -20 91.7 -20 90 C-18.35 90 -16.7 90 -15 90 C-15 88.35 -15 86.7 -15 85 C-13.35 85 -11.7 85 -10 85 C-10 83.35 -10 81.7 -10 80 C-8.35 80 -6.7 80 -5 80 C-5 78.35 -5 76.7 -5 75 C-6.65 75 -8.3 75 -10 75 C-10 73.35 -10 71.7 -10 70 C-11.65 70 -13.3 70 -15 70 C-15 68.35 -15 66.7 -15 65 C-16.65 65 -18.3 65 -20 65 C-20 63.35 -20 61.7 -20 60 C-21.65 60 -23.3 60 -25 60 C-25 48.45 -25 36.9 -25 25 C-23.35 25 -21.7 25 -20 25 C-20 23.35 -20 21.7 -20 20 C-18.35 20 -16.7 20 -15 20 C-15 18.35 -15 16.7 -15 15 C-13.35 15 -11.7 15 -10 15 C-10 13.35 -10 11.7 -10 10 C-8.35 10 -6.7 10 -5 10 C-5 8.35 -5 6.7 -5 5 C-3.35 5 -1.7 5 0 5 C0 3.35 0 1.7 0 0 Z M120 65 C120 66.65 120 68.3 120 70 C118.35 70 116.7 70 115 70 C115 71.65 115 73.3 115 75 C113.35 75 111.7 75 110 75 C110 76.65 110 78.3 110 80 C108.35 80 106.7 80 105 80 C105 81.65 105 83.3 105 85 C101.7 85 98.4 85 95 85 C95 86.65 95 88.3 95 90 C96.65 90 98.3 90 100 90 C100 91.65 100 93.3 100 95 C101.65 95 103.3 95 105 95 C105 96.65 105 98.3 105 100 C108.3 100 111.6 100 115 100 C115 98.35 115 96.7 115 95 C118.3 95 121.6 95 125 95 C125 93.35 125 91.7 125 90 C126.65 90 128.3 90 130 90 C130 86.7 130 83.4 130 80 C131.65 80 133.3 80 135 80 C135 78.35 135 76.7 135 75 C133.35 75 131.7 75 130 75 C130 73.35 130 71.7 130 70 C128.35 70 126.7 70 125 70 C125 68.35 125 66.7 125 65 C123.35 65 121.7 65 120 65 Z M-110 145 C-110 146.65 -110 148.3 -110 150 C-108.35 150 -106.7 150 -105 150 C-105 148.35 -105 146.7 -105 145 C-106.65 145 -108.3 145 -110 145 Z " fill="#1F1F1F" transform="translate(145,65)"/>
<path d="M0 0 C1.65 0 3.3 0 5 0 C5 6.6 5 13.2 5 20 C1.7 20 -1.6 20 -5 20 C-5 23.3 -5 26.6 -5 30 C-6.65 30 -8.3 30 -10 30 C-10 36.6 -10 43.2 -10 50 C-6.7 50 -3.4 50 0 50 C0 45.05 0 40.1 0 35 C1.65 35 3.3 35 5 35 C5 33.35 5 31.7 5 30 C6.65 30 8.3 30 10 30 C10 28.35 10 26.7 10 25 C11.65 25 13.3 25 15 25 C15 23.35 15 21.7 15 20 C19.95 20 24.9 20 30 20 C30 23.3 30 26.6 30 30 C28.35 30 26.7 30 25 30 C25 33.3 25 36.6 25 40 C36.55 40 48.1 40 60 40 C60 38.35 60 36.7 60 35 C64.95 35 69.9 35 75 35 C75 33.35 75 31.7 75 30 C79.95 30 84.9 30 90 30 C90 33.3 90 36.6 90 40 C88.35 40 86.7 40 85 40 C85 41.65 85 43.3 85 45 C83.35 45 81.7 45 80 45 C80 46.65 80 48.3 80 50 C78.35 50 76.7 50 75 50 C75 51.65 75 53.3 75 55 C71.7 55 68.4 55 65 55 C65 66.55 65 78.1 65 90 C66.65 90 68.3 90 70 90 C70 98.25 70 106.5 70 115 C68.35 115 66.7 115 65 115 C65 116.65 65 118.3 65 120 C63.35 120 61.7 120 60 120 C60 121.65 60 123.3 60 125 C58.35 125 56.7 125 55 125 C55 121.7 55 118.4 55 115 C56.65 115 58.3 115 60 115 C60 111.7 60 108.4 60 105 C61.65 105 63.3 105 65 105 C65 101.7 65 98.4 65 95 C63.35 95 61.7 95 60 95 C60 96.65 60 98.3 60 100 C58.35 100 56.7 100 55 100 C55 101.65 55 103.3 55 105 C53.35 105 51.7 105 50 105 C50 106.65 50 108.3 50 110 C48.35 110 46.7 110 45 110 C45 111.65 45 113.3 45 115 C40.05 115 35.1 115 30 115 C30 116.65 30 118.3 30 120 C18.45 120 6.9 120 -5 120 C-5 118.35 -5 116.7 -5 115 C-6.65 115 -8.3 115 -10 115 C-10 113.35 -10 111.7 -10 110 C-11.65 110 -13.3 110 -15 110 C-15 108.35 -15 106.7 -15 105 C-16.65 105 -18.3 105 -20 105 C-20 106.65 -20 108.3 -20 110 C-21.65 110 -23.3 110 -25 110 C-25 118.25 -25 126.5 -25 135 C-34.9 135 -44.8 135 -55 135 C-55 131.7 -55 128.4 -55 125 C-56.65 125 -58.3 125 -60 125 C-60 123.35 -60 121.7 -60 120 C-61.65 120 -63.3 120 -65 120 C-65 128.25 -65 136.5 -65 145 C-68.3 145 -71.6 145 -75 145 C-75 151.6 -75 158.2 -75 165 C-76.65 165 -78.3 165 -80 165 C-80 166.65 -80 168.3 -80 170 C-86.6 170 -93.2 170 -100 170 C-100 168.35 -100 166.7 -100 165 C-101.65 165 -103.3 165 -105 165 C-105 163.35 -105 161.7 -105 160 C-106.65 160 -108.3 160 -110 160 C-110 158.35 -110 156.7 -110 155 C-108.35 155 -106.7 155 -105 155 C-105 151.7 -105 148.4 -105 145 C-106.65 145 -108.3 145 -110 145 C-110 143.35 -110 141.7 -110 140 C-111.65 140 -113.3 140 -115 140 C-115 138.35 -115 136.7 -115 135 C-118.3 135 -121.6 135 -125 135 C-125 133.35 -125 131.7 -125 130 C-116.75 130 -108.5 130 -100 130 C-100 131.65 -100 133.3 -100 135 C-98.35 135 -96.7 135 -95 135 C-95 131.7 -95 128.4 -95 125 C-91.7 125 -88.4 125 -85 125 C-85 123.35 -85 121.7 -85 120 C-83.35 120 -81.7 120 -80 120 C-80 118.35 -80 116.7 -80 115 C-78.35 115 -76.7 115 -75 115 C-75 113.35 -75 111.7 -75 110 C-73.35 110 -71.7 110 -70 110 C-70 108.35 -70 106.7 -70 105 C-68.35 105 -66.7 105 -65 105 C-65 103.35 -65 101.7 -65 100 C-63.35 100 -61.7 100 -60 100 C-60 98.35 -60 96.7 -60 95 C-46.8 95 -33.6 95 -20 95 C-20 93.35 -20 91.7 -20 90 C-18.35 90 -16.7 90 -15 90 C-15 88.35 -15 86.7 -15 85 C-13.35 85 -11.7 85 -10 85 C-10 83.35 -10 81.7 -10 80 C-8.35 80 -6.7 80 -5 80 C-5 78.35 -5 76.7 -5 75 C-6.65 75 -8.3 75 -10 75 C-10 73.35 -10 71.7 -10 70 C-11.65 70 -13.3 70 -15 70 C-15 68.35 -15 66.7 -15 65 C-16.65 65 -18.3 65 -20 65 C-20 63.35 -20 61.7 -20 60 C-21.65 60 -23.3 60 -25 60 C-25 48.45 -25 36.9 -25 25 C-23.35 25 -21.7 25 -20 25 C-20 23.35 -20 21.7 -20 20 C-18.35 20 -16.7 20 -15 20 C-15 18.35 -15 16.7 -15 15 C-13.35 15 -11.7 15 -10 15 C-10 13.35 -10 11.7 -10 10 C-8.35 10 -6.7 10 -5 10 C-5 8.35 -5 6.7 -5 5 C-3.35 5 -1.7 5 0 5 C0 3.35 0 1.7 0 0 Z " fill="#2B2B2B" transform="translate(145,65)"/>
<path d="M0 0 C1.65 0 3.3 0 5 0 C5 1.65 5 3.3 5 5 C8.3 5 11.6 5 15 5 C15 6.65 15 8.3 15 10 C16.65 10 18.3 10 20 10 C20 11.65 20 13.3 20 15 C26.6 15 33.2 15 40 15 C40 13.35 40 11.7 40 10 C41.65 10 43.3 10 45 10 C45 8.35 45 6.7 45 5 C46.65 5 48.3 5 50 5 C50 11.6 50 18.2 50 25 C48.35 25 46.7 25 45 25 C45 26.65 45 28.3 45 30 C43.35 30 41.7 30 40 30 C40 33.3 40 36.6 40 40 C38.35 40 36.7 40 35 40 C35 41.65 35 43.3 35 45 C26.75 45 18.5 45 10 45 C10 43.35 10 41.7 10 40 C8.35 40 6.7 40 5 40 C5 38.35 5 36.7 5 35 C3.35 35 1.7 35 0 35 C0 33.35 0 31.7 0 30 C-1.65 30 -3.3 30 -5 30 C-5 28.35 -5 26.7 -5 25 C-9.95 25 -14.9 25 -20 25 C-20 23.35 -20 21.7 -20 20 C-10.1 20 -0.2 20 10 20 C10 16.7 10 13.4 10 10 C6.7 10 3.4 10 0 10 C0 6.7 0 3.4 0 0 Z " fill="#2A2A2A" transform="translate(255,200)"/>
<path d="M0 0 C1.65 0 3.3 0 5 0 C5 3.3 5 6.6 5 10 C6.65 10 8.3 10 10 10 C10 14.95 10 19.9 10 25 C8.35 25 6.7 25 5 25 C5 31.6 5 38.2 5 45 C3.35 45 1.7 45 0 45 C0 46.65 0 48.3 0 50 C-1.65 50 -3.3 50 -5 50 C-5 51.65 -5 53.3 -5 55 C-6.65 55 -8.3 55 -10 55 C-10 56.65 -10 58.3 -10 60 C-11.65 60 -13.3 60 -15 60 C-15 61.65 -15 63.3 -15 65 C-21.6 65 -28.2 65 -35 65 C-35 63.35 -35 61.7 -35 60 C-38.3 60 -41.6 60 -45 60 C-45 58.35 -45 56.7 -45 55 C-46.65 55 -48.3 55 -50 55 C-50 59.95 -50 64.9 -50 70 C-51.65 70 -53.3 70 -55 70 C-55 58.45 -55 46.9 -55 35 C-53.35 35 -51.7 35 -50 35 C-50 39.95 -50 44.9 -50 50 C-43.4 50 -36.8 50 -30 50 C-30 48.35 -30 46.7 -30 45 C-26.7 45 -23.4 45 -20 45 C-20 43.35 -20 41.7 -20 40 C-18.35 40 -16.7 40 -15 40 C-15 38.35 -15 36.7 -15 35 C-13.35 35 -11.7 35 -10 35 C-10 33.35 -10 31.7 -10 30 C-8.35 30 -6.7 30 -5 30 C-5 26.7 -5 23.4 -5 20 C-3.35 20 -1.7 20 0 20 C0 13.4 0 6.8 0 0 Z " fill="#161616" transform="translate(265,85)"/>
<path d="M0 0 C1.65 0 3.3 0 5 0 C5 6.6 5 13.2 5 20 C3.35 20 1.7 20 0 20 C0 23.3 0 26.6 0 30 C-1.65 30 -3.3 30 -5 30 C-5 31.65 -5 33.3 -5 35 C-6.65 35 -8.3 35 -10 35 C-10 36.65 -10 38.3 -10 40 C-8.35 40 -6.7 40 -5 40 C-5 41.65 -5 43.3 -5 45 C-6.65 45 -8.3 45 -10 45 C-10 46.65 -10 48.3 -10 50 C-11.65 50 -13.3 50 -15 50 C-15 51.65 -15 53.3 -15 55 C-21.6 55 -28.2 55 -35 55 C-35 53.35 -35 51.7 -35 50 C-36.65 50 -38.3 50 -40 50 C-40 48.35 -40 46.7 -40 45 C-43.3 45 -46.6 45 -50 45 C-50 43.35 -50 41.7 -50 40 C-45.05 40 -40.1 40 -35 40 C-35 41.65 -35 43.3 -35 45 C-33.35 45 -31.7 45 -30 45 C-30 46.65 -30 48.3 -30 50 C-26.7 50 -23.4 50 -20 50 C-20 48.35 -20 46.7 -20 45 C-21.65 45 -23.3 45 -25 45 C-25 43.35 -25 41.7 -25 40 C-26.65 40 -28.3 40 -30 40 C-30 38.35 -30 36.7 -30 35 C-31.65 35 -33.3 35 -35 35 C-35 33.35 -35 31.7 -35 30 C-30.05 30 -25.1 30 -20 30 C-20 28.35 -20 26.7 -20 25 C-18.35 25 -16.7 25 -15 25 C-15 23.35 -15 21.7 -15 20 C-13.35 20 -11.7 20 -10 20 C-10 18.35 -10 16.7 -10 15 C-8.35 15 -6.7 15 -5 15 C-5 13.35 -5 11.7 -5 10 C-3.35 10 -1.7 10 0 10 C0 6.7 0 3.4 0 0 Z " fill="#181818" transform="translate(310,160)"/>
<path d="M0 0 C1.65 0 3.3 0 5 0 C5 6.6 5 13.2 5 20 C1.7 20 -1.6 20 -5 20 C-5 23.3 -5 26.6 -5 30 C-6.65 30 -8.3 30 -10 30 C-10 36.6 -10 43.2 -10 50 C-8.35 50 -6.7 50 -5 50 C-5 51.65 -5 53.3 -5 55 C-6.65 55 -8.3 55 -10 55 C-10 59.95 -10 64.9 -10 70 C-11.65 70 -13.3 70 -15 70 C-15 68.35 -15 66.7 -15 65 C-16.65 65 -18.3 65 -20 65 C-20 63.35 -20 61.7 -20 60 C-21.65 60 -23.3 60 -25 60 C-25 48.45 -25 36.9 -25 25 C-23.35 25 -21.7 25 -20 25 C-20 23.35 -20 21.7 -20 20 C-18.35 20 -16.7 20 -15 20 C-15 18.35 -15 16.7 -15 15 C-13.35 15 -11.7 15 -10 15 C-10 13.35 -10 11.7 -10 10 C-8.35 10 -6.7 10 -5 10 C-5 8.35 -5 6.7 -5 5 C-3.35 5 -1.7 5 0 5 C0 3.35 0 1.7 0 0 Z " fill="#161616" transform="translate(145,65)"/>
<path d="M0 0 C3.3 0 6.6 0 10 0 C10 1.65 10 3.3 10 5 C11.65 5 13.3 5 15 5 C15 6.65 15 8.3 15 10 C16.65 10 18.3 10 20 10 C20 16.6 20 23.2 20 30 C18.35 30 16.7 30 15 30 C15 31.65 15 33.3 15 35 C13.35 35 11.7 35 10 35 C10 36.65 10 38.3 10 40 C8.35 40 6.7 40 5 40 C5 41.65 5 43.3 5 45 C3.35 45 1.7 45 0 45 C0 48.3 0 51.6 0 55 C1.65 55 3.3 55 5 55 C5 56.65 5 58.3 5 60 C1.7 60 -1.6 60 -5 60 C-5 55.05 -5 50.1 -5 45 C-6.65 45 -8.3 45 -10 45 C-10 43.35 -10 41.7 -10 40 C-14.95 40 -19.9 40 -25 40 C-25 38.35 -25 36.7 -25 35 C-20.05 35 -15.1 35 -10 35 C-10 33.35 -10 31.7 -10 30 C-6.7 30 -3.4 30 0 30 C0 28.35 0 26.7 0 25 C1.65 25 3.3 25 5 25 C5 21.7 5 18.4 5 15 C6.65 15 8.3 15 10 15 C10 13.35 10 11.7 10 10 C8.35 10 6.7 10 5 10 C5 8.35 5 6.7 5 5 C3.35 5 1.7 5 0 5 C0 3.35 0 1.7 0 0 Z " fill="#171717" transform="translate(270,130)"/>
<path d="M0 0 C1.65 0 3.3 0 5 0 C5 3.3 5 6.6 5 10 C3.35 10 1.7 10 0 10 C0 13.3 0 16.6 0 20 C-1.65 20 -3.3 20 -5 20 C-5 23.3 -5 26.6 -5 30 C-3.35 30 -1.7 30 0 30 C0 31.65 0 33.3 0 35 C-1.65 35 -3.3 35 -5 35 C-5 36.65 -5 38.3 -5 40 C-6.65 40 -8.3 40 -10 40 C-10 41.65 -10 43.3 -10 45 C-13.3 45 -16.6 45 -20 45 C-20 46.65 -20 48.3 -20 50 C-23.3 50 -26.6 50 -30 50 C-30 51.65 -30 53.3 -30 55 C-36.6 55 -43.2 55 -50 55 C-50 53.35 -50 51.7 -50 50 C-46.7 50 -43.4 50 -40 50 C-40 48.35 -40 46.7 -40 45 C-36.7 45 -33.4 45 -30 45 C-30 43.35 -30 41.7 -30 40 C-26.7 40 -23.4 40 -20 40 C-20 38.35 -20 36.7 -20 35 C-18.35 35 -16.7 35 -15 35 C-15 31.7 -15 28.4 -15 25 C-19.95 25 -24.9 25 -30 25 C-30 23.35 -30 21.7 -30 20 C-25.05 20 -20.1 20 -15 20 C-15 18.35 -15 16.7 -15 15 C-13.35 15 -11.7 15 -10 15 C-10 13.35 -10 11.7 -10 10 C-8.35 10 -6.7 10 -5 10 C-5 8.35 -5 6.7 -5 5 C-3.35 5 -1.7 5 0 5 C0 3.35 0 1.7 0 0 Z " fill="#161616" transform="translate(205,160)"/>
<path d="M0 0 C1.65 0 3.3 0 5 0 C5 1.65 5 3.3 5 5 C6.65 5 8.3 5 10 5 C10 8.3 10 11.6 10 15 C11.65 15 13.3 15 15 15 C15 21.6 15 28.2 15 35 C13.35 35 11.7 35 10 35 C10 36.65 10 38.3 10 40 C3.4 40 -3.2 40 -10 40 C-10 38.35 -10 36.7 -10 35 C-11.65 35 -13.3 35 -15 35 C-15 33.35 -15 31.7 -15 30 C-16.65 30 -18.3 30 -20 30 C-20 28.35 -20 26.7 -20 25 C-18.35 25 -16.7 25 -15 25 C-15 23.35 -15 21.7 -15 20 C-11.7 20 -8.4 20 -5 20 C-5 18.35 -5 16.7 -5 15 C-1.7 15 1.6 15 5 15 C5 13.35 5 11.7 5 10 C3.35 10 1.7 10 0 10 C0 6.7 0 3.4 0 0 Z " fill="#2B2B2B" transform="translate(55,195)"/>
<path d="M0 0 C4.95 0 9.9 0 15 0 C15 1.65 15 3.3 15 5 C16.65 5 18.3 5 20 5 C20 9.95 20 14.9 20 20 C23.3 20 26.6 20 30 20 C30 21.65 30 23.3 30 25 C31.65 25 33.3 25 35 25 C35 26.65 35 28.3 35 30 C36.65 30 38.3 30 40 30 C40 31.65 40 33.3 40 35 C41.65 35 43.3 35 45 35 C45 36.65 45 38.3 45 40 C41.7 40 38.4 40 35 40 C35 38.35 35 36.7 35 35 C33.35 35 31.7 35 30 35 C30 33.35 30 31.7 30 30 C25.05 30 20.1 30 15 30 C15 28.35 15 26.7 15 25 C11.7 25 8.4 25 5 25 C5 26.65 5 28.3 5 30 C3.35 30 1.7 30 0 30 C0 20.1 0 10.2 0 0 Z " fill="#2B2B2B" transform="translate(245,170)"/>
<path d="M0 0 C4.95 0 9.9 0 15 0 C15 3.3 15 6.6 15 10 C13.35 10 11.7 10 10 10 C10 11.65 10 13.3 10 15 C6.7 15 3.4 15 0 15 C0 16.65 0 18.3 0 20 C-3.3 20 -6.6 20 -10 20 C-10 21.65 -10 23.3 -10 25 C-13.3 25 -16.6 25 -20 25 C-20 23.35 -20 21.7 -20 20 C-21.65 20 -23.3 20 -25 20 C-25 15.05 -25 10.1 -25 5 C-16.75 5 -8.5 5 0 5 C0 3.35 0 1.7 0 0 Z " fill="#6D1B1B" transform="translate(175,185)"/>
<path d="M0 0 C3.3 0 6.6 0 10 0 C10 1.65 10 3.3 10 5 C8.35 5 6.7 5 5 5 C5 8.3 5 11.6 5 15 C6.65 15 8.3 15 10 15 C10 16.65 10 18.3 10 20 C6.7 20 3.4 20 0 20 C0 21.65 0 23.3 0 25 C-3.3 25 -6.6 25 -10 25 C-10 23.35 -10 21.7 -10 20 C-11.65 20 -13.3 20 -15 20 C-15 18.35 -15 16.7 -15 15 C-16.65 15 -18.3 15 -20 15 C-20 13.35 -20 11.7 -20 10 C-23.3 10 -26.6 10 -30 10 C-30 8.35 -30 6.7 -30 5 C-21.75 5 -13.5 5 -5 5 C-5 6.65 -5 8.3 -5 10 C-3.35 10 -1.7 10 0 10 C0 6.7 0 3.4 0 0 Z " fill="#1B1B1B" transform="translate(50,190)"/>
<path d="M0 0 C1.65 0 3.3 0 5 0 C5 1.65 5 3.3 5 5 C6.65 5 8.3 5 10 5 C10 6.65 10 8.3 10 10 C8.35 10 6.7 10 5 10 C5 11.65 5 13.3 5 15 C3.35 15 1.7 15 0 15 C0 16.65 0 18.3 0 20 C-1.65 20 -3.3 20 -5 20 C-5 21.65 -5 23.3 -5 25 C-8.3 25 -11.6 25 -15 25 C-15 26.65 -15 28.3 -15 30 C-16.65 30 -18.3 30 -20 30 C-20 28.35 -20 26.7 -20 25 C-21.65 25 -23.3 25 -25 25 C-25 23.35 -25 21.7 -25 20 C-23.35 20 -21.7 20 -20 20 C-20 18.35 -20 16.7 -20 15 C-18.35 15 -16.7 15 -15 15 C-15 13.35 -15 11.7 -15 10 C-13.35 10 -11.7 10 -10 10 C-10 8.35 -10 6.7 -10 5 C-6.7 5 -3.4 5 0 5 C0 3.35 0 1.7 0 0 Z " fill="#6D1B1B" transform="translate(190,125)"/>
<path d="M0 0 C6.6 0 13.2 0 20 0 C20 3.3 20 6.6 20 10 C16.7 10 13.4 10 10 10 C10 11.65 10 13.3 10 15 C5.05 15 0.1 15 -5 15 C-5 11.7 -5 8.4 -5 5 C-3.35 5 -1.7 5 0 5 C0 3.35 0 1.7 0 0 Z " fill="#292929" transform="translate(270,320)"/>
<path d="M0 0 C3.3 0 6.6 0 10 0 C10 1.65 10 3.3 10 5 C11.65 5 13.3 5 15 5 C15 6.65 15 8.3 15 10 C16.65 10 18.3 10 20 10 C20 11.65 20 13.3 20 15 C18.35 15 16.7 15 15 15 C15 16.65 15 18.3 15 20 C13.35 20 11.7 20 10 20 C10 18.35 10 16.7 10 15 C6.7 15 3.4 15 0 15 C0 13.35 0 11.7 0 10 C-1.65 10 -3.3 10 -5 10 C-5 8.35 -5 6.7 -5 5 C-3.35 5 -1.7 5 0 5 C0 3.35 0 1.7 0 0 Z " fill="#292929" transform="translate(140,305)"/>
<path d="M0 0 C9.9 0 19.8 0 30 0 C30 1.65 30 3.3 30 5 C21.75 5 13.5 5 5 5 C5 9.95 5 14.9 5 20 C3.35 20 1.7 20 0 20 C0 13.4 0 6.8 0 0 Z " fill="#161616" transform="translate(145,185)"/>
<path d="M0 0 C11.55 0 23.1 0 35 0 C35 1.65 35 3.3 35 5 C23.45 5 11.9 5 0 5 C0 3.35 0 1.7 0 0 Z " fill="#1B1B1B" transform="translate(85,160)"/>
<path d="M0 0 C1.65 0 3.3 0 5 0 C5 1.65 5 3.3 5 5 C6.65 5 8.3 5 10 5 C10 6.65 10 8.3 10 10 C8.35 10 6.7 10 5 10 C5 11.65 5 13.3 5 15 C3.35 15 1.7 15 0 15 C0 13.35 0 11.7 0 10 C-1.65 10 -3.3 10 -5 10 C-5 8.35 -5 6.7 -5 5 C-3.35 5 -1.7 5 0 5 C0 3.35 0 1.7 0 0 Z " fill="#444444" transform="translate(275,225)"/>
<path d="M0 0 C1.65 0 3.3 0 5 0 C5 1.65 5 3.3 5 5 C6.65 5 8.3 5 10 5 C10 8.3 10 11.6 10 15 C6.7 15 3.4 15 0 15 C0 10.05 0 5.1 0 0 Z " fill="#262626" transform="translate(40,200)"/>
<path d="M0 0 C1.65 0 3.3 0 5 0 C5 8.25 5 16.5 5 25 C3.35 25 1.7 25 0 25 C0 16.75 0 8.5 0 0 Z " fill="#161616" transform="translate(215,155)"/>
<path d="M0 0 C3.3 0 6.6 0 10 0 C10 3.3 10 6.6 10 10 C6.7 10 3.4 10 0 10 C0 6.7 0 3.4 0 0 Z " fill="#444444" transform="translate(50,220)"/>
<path d="M0 0 C1.65 0 3.3 0 5 0 C5 1.65 5 3.3 5 5 C6.65 5 8.3 5 10 5 C10 6.65 10 8.3 10 10 C8.35 10 6.7 10 5 10 C5 11.65 5 13.3 5 15 C3.35 15 1.7 15 0 15 C0 10.05 0 5.1 0 0 Z " fill="#6D1B1B" transform="translate(140,135)"/>
<path d="M0 0 C3.3 0 6.6 0 10 0 C10 1.65 10 3.3 10 5 C8.35 5 6.7 5 5 5 C5 6.65 5 8.3 5 10 C3.35 10 1.7 10 0 10 C0 6.7 0 3.4 0 0 Z " fill="#212121" transform="translate(295,200)"/>
<path d="M0 0 C1.65 0 3.3 0 5 0 C5 3.3 5 6.6 5 10 C1.7 10 -1.6 10 -5 10 C-5 8.35 -5 6.7 -5 5 C-3.35 5 -1.7 5 0 5 C0 3.35 0 1.7 0 0 Z " fill="#393939" transform="translate(135,145)"/>
<path d="M0 0 C4.95 0 9.9 0 15 0 C15 1.65 15 3.3 15 5 C10.05 5 5.1 5 0 5 C0 3.35 0 1.7 0 0 Z " fill="#393939" transform="translate(205,100)"/>
<path d="M0 0 C1.65 0 3.3 0 5 0 C5 4.95 5 9.9 5 15 C3.35 15 1.7 15 0 15 C0 10.05 0 5.1 0 0 Z " fill="#393939" transform="translate(145,100)"/>
<path d="M0 0 C4.95 0 9.9 0 15 0 C15 1.65 15 3.3 15 5 C10.05 5 5.1 5 0 5 C0 3.35 0 1.7 0 0 Z " fill="#393939" transform="translate(220,95)"/>
<path d="M0 0 C4.95 0 9.9 0 15 0 C15 1.65 15 3.3 15 5 C10.05 5 5.1 5 0 5 C0 3.35 0 1.7 0 0 Z " fill="#393939" transform="translate(160,85)"/>
<path d="M0 0 C1.65 0 3.3 0 5 0 C5 3.3 5 6.6 5 10 C3.35 10 1.7 10 0 10 C0 6.7 0 3.4 0 0 Z " fill="#212121" transform="translate(260,210)"/>
<path d="M0 0 C3.3 0 6.6 0 10 0 C10 1.65 10 3.3 10 5 C6.7 5 3.4 5 0 5 C0 3.35 0 1.7 0 0 Z " fill="#212121" transform="translate(40,210)"/>
<path d="M0 0 C1.65 0 3.3 0 5 0 C5 3.3 5 6.6 5 10 C3.35 10 1.7 10 0 10 C0 6.7 0 3.4 0 0 Z " fill="#1B1B1B" transform="translate(65,200)"/>
<path d="M0 0 C3.3 0 6.6 0 10 0 C10 1.65 10 3.3 10 5 C6.7 5 3.4 5 0 5 C0 3.35 0 1.7 0 0 Z " fill="#4F1919" transform="translate(180,130)"/>
<path d="M0 0 C3.3 0 6.6 0 10 0 C10 1.65 10 3.3 10 5 C6.7 5 3.4 5 0 5 C0 3.35 0 1.7 0 0 Z " fill="#161616" transform="translate(180,125)"/>
<path d="M0 0 C1.65 0 3.3 0 5 0 C5 1.65 5 3.3 5 5 C3.35 5 1.7 5 0 5 C0 3.35 0 1.7 0 0 Z " fill="#212121" transform="translate(290,240)"/>
<path d="M0 0 C1.65 0 3.3 0 5 0 C5 1.65 5 3.3 5 5 C3.35 5 1.7 5 0 5 C0 3.35 0 1.7 0 0 Z " fill="#212121" transform="translate(65,230)"/>
<path d="M0 0 C1.65 0 3.3 0 5 0 C5 1.65 5 3.3 5 5 C3.35 5 1.7 5 0 5 C0 3.35 0 1.7 0 0 Z " fill="#212121" transform="translate(300,225)"/>
<path d="M0 0 C1.65 0 3.3 0 5 0 C5 1.65 5 3.3 5 5 C3.35 5 1.7 5 0 5 C0 3.35 0 1.7 0 0 Z " fill="#1B1B1B" transform="translate(30,225)"/>
<path d="M0 0 C1.65 0 3.3 0 5 0 C5 1.65 5 3.3 5 5 C3.35 5 1.7 5 0 5 C0 3.35 0 1.7 0 0 Z " fill="#1B1B1B" transform="translate(35,215)"/>
<path d="M0 0 C1.65 0 3.3 0 5 0 C5 1.65 5 3.3 5 5 C3.35 5 1.7 5 0 5 C0 3.35 0 1.7 0 0 Z " fill="#2B2B2B" transform="translate(30,215)"/>
<path d="M0 0 C1.65 0 3.3 0 5 0 C5 1.65 5 3.3 5 5 C3.35 5 1.7 5 0 5 C0 3.35 0 1.7 0 0 Z " fill="#212121" transform="translate(25,215)"/>
<path d="M0 0 C1.65 0 3.3 0 5 0 C5 1.65 5 3.3 5 5 C3.35 5 1.7 5 0 5 C0 3.35 0 1.7 0 0 Z " fill="#212121" transform="translate(290,210)"/>
<path d="M0 0 C1.65 0 3.3 0 5 0 C5 1.65 5 3.3 5 5 C3.35 5 1.7 5 0 5 C0 3.35 0 1.7 0 0 Z " fill="#1B1B1B" transform="translate(40,210)"/>
<path d="M0 0 C1.65 0 3.3 0 5 0 C5 1.65 5 3.3 5 5 C3.35 5 1.7 5 0 5 C0 3.35 0 1.7 0 0 Z " fill="#161616" transform="translate(150,205)"/>
<path d="M0 0 C1.65 0 3.3 0 5 0 C5 1.65 5 3.3 5 5 C3.35 5 1.7 5 0 5 C0 3.35 0 1.7 0 0 Z " fill="#212121" transform="translate(55,205)"/>
<path d="M0 0 C1.65 0 3.3 0 5 0 C5 1.65 5 3.3 5 5 C3.35 5 1.7 5 0 5 C0 3.35 0 1.7 0 0 Z " fill="#1B1B1B" transform="translate(300,200)"/>
<path d="M0 0 C1.65 0 3.3 0 5 0 C5 1.65 5 3.3 5 5 C3.35 5 1.7 5 0 5 C0 3.35 0 1.7 0 0 Z " fill="#2B2B2B" transform="translate(255,200)"/>
<path d="M0 0 C1.65 0 3.3 0 5 0 C5 1.65 5 3.3 5 5 C3.35 5 1.7 5 0 5 C0 3.35 0 1.7 0 0 Z " fill="#212121" transform="translate(250,200)"/>
<path d="M0 0 C1.65 0 3.3 0 5 0 C5 1.65 5 3.3 5 5 C3.35 5 1.7 5 0 5 C0 3.35 0 1.7 0 0 Z " fill="#2B2B2B" transform="translate(40,200)"/>
<path d="M0 0 C1.65 0 3.3 0 5 0 C5 1.65 5 3.3 5 5 C3.35 5 1.7 5 0 5 C0 3.35 0 1.7 0 0 Z " fill="#212121" transform="translate(35,200)"/>
<path d="M0 0 C1.65 0 3.3 0 5 0 C5 1.65 5 3.3 5 5 C3.35 5 1.7 5 0 5 C0 3.35 0 1.7 0 0 Z " fill="#1B1B1B" transform="translate(60,195)"/>
<path d="M0 0 C1.65 0 3.3 0 5 0 C5 1.65 5 3.3 5 5 C3.35 5 1.7 5 0 5 C0 3.35 0 1.7 0 0 Z " fill="#2B2B2B" transform="translate(195,190)"/>
<path d="M0 0 C1.65 0 3.3 0 5 0 C5 1.65 5 3.3 5 5 C3.35 5 1.7 5 0 5 C0 3.35 0 1.7 0 0 Z " fill="#161616" transform="translate(205,185)"/>
<path d="M0 0 C1.65 0 3.3 0 5 0 C5 1.65 5 3.3 5 5 C3.35 5 1.7 5 0 5 C0 3.35 0 1.7 0 0 Z " fill="#1B1B1B" transform="translate(60,185)"/>
<path d="M0 0 C1.65 0 3.3 0 5 0 C5 1.65 5 3.3 5 5 C3.35 5 1.7 5 0 5 C0 3.35 0 1.7 0 0 Z " fill="#161616" transform="translate(210,180)"/>
<path d="M0 0 C1.65 0 3.3 0 5 0 C5 1.65 5 3.3 5 5 C3.35 5 1.7 5 0 5 C0 3.35 0 1.7 0 0 Z " fill="#1B1B1B" transform="translate(65,180)"/>
<path d="M0 0 C1.65 0 3.3 0 5 0 C5 1.65 5 3.3 5 5 C3.35 5 1.7 5 0 5 C0 3.35 0 1.7 0 0 Z " fill="#1B1B1B" transform="translate(70,175)"/>
<path d="M0 0 C1.65 0 3.3 0 5 0 C5 1.65 5 3.3 5 5 C3.35 5 1.7 5 0 5 C0 3.35 0 1.7 0 0 Z " fill="#1B1B1B" transform="translate(75,170)"/>
<path d="M0 0 C1.65 0 3.3 0 5 0 C5 1.65 5 3.3 5 5 C3.35 5 1.7 5 0 5 C0 3.35 0 1.7 0 0 Z " fill="#393939" transform="translate(125,165)"/>
<path d="M0 0 C1.65 0 3.3 0 5 0 C5 1.65 5 3.3 5 5 C3.35 5 1.7 5 0 5 C0 3.35 0 1.7 0 0 Z " fill="#1B1B1B" transform="translate(80,165)"/>
<path d="M0 0 C1.65 0 3.3 0 5 0 C5 1.65 5 3.3 5 5 C3.35 5 1.7 5 0 5 C0 3.35 0 1.7 0 0 Z " fill="#393939" transform="translate(120,160)"/>
<path d="M0 0 C1.65 0 3.3 0 5 0 C5 1.65 5 3.3 5 5 C3.35 5 1.7 5 0 5 C0 3.35 0 1.7 0 0 Z " fill="#393939" transform="translate(125,155)"/>
<path d="M0 0 C1.65 0 3.3 0 5 0 C5 1.65 5 3.3 5 5 C3.35 5 1.7 5 0 5 C0 3.35 0 1.7 0 0 Z " fill="#4F1919" transform="translate(165,145)"/>
<path d="M0 0 C1.65 0 3.3 0 5 0 C5 1.65 5 3.3 5 5 C3.35 5 1.7 5 0 5 C0 3.35 0 1.7 0 0 Z " fill="#232323" transform="translate(135,145)"/>
<path d="M0 0 C1.65 0 3.3 0 5 0 C5 1.65 5 3.3 5 5 C3.35 5 1.7 5 0 5 C0 3.35 0 1.7 0 0 Z " fill="#4F1919" transform="translate(170,140)"/>
<path d="M0 0 C1.65 0 3.3 0 5 0 C5 1.65 5 3.3 5 5 C3.35 5 1.7 5 0 5 C0 3.35 0 1.7 0 0 Z " fill="#161616" transform="translate(165,140)"/>
<path d="M0 0 C1.65 0 3.3 0 5 0 C5 1.65 5 3.3 5 5 C3.35 5 1.7 5 0 5 C0 3.35 0 1.7 0 0 Z " fill="#4F1919" transform="translate(175,135)"/>
<path d="M0 0 C1.65 0 3.3 0 5 0 C5 1.65 5 3.3 5 5 C3.35 5 1.7 5 0 5 C0 3.35 0 1.7 0 0 Z " fill="#161616" transform="translate(170,135)"/>
<path d="M0 0 C1.65 0 3.3 0 5 0 C5 1.65 5 3.3 5 5 C3.35 5 1.7 5 0 5 C0 3.35 0 1.7 0 0 Z " fill="#161616" transform="translate(145,135)"/>
<path d="M0 0 C1.65 0 3.3 0 5 0 C5 1.65 5 3.3 5 5 C3.35 5 1.7 5 0 5 C0 3.35 0 1.7 0 0 Z " fill="#4F1919" transform="translate(140,135)"/>
<path d="M0 0 C1.65 0 3.3 0 5 0 C5 1.65 5 3.3 5 5 C3.35 5 1.7 5 0 5 C0 3.35 0 1.7 0 0 Z " fill="#161616" transform="translate(135,135)"/>
<path d="M0 0 C1.65 0 3.3 0 5 0 C5 1.65 5 3.3 5 5 C3.35 5 1.7 5 0 5 C0 3.35 0 1.7 0 0 Z " fill="#4F1919" transform="translate(195,130)"/>
<path d="M0 0 C1.65 0 3.3 0 5 0 C5 1.65 5 3.3 5 5 C3.35 5 1.7 5 0 5 C0 3.35 0 1.7 0 0 Z " fill="#161616" transform="translate(175,130)"/>
<path d="M0 0 C1.65 0 3.3 0 5 0 C5 1.65 5 3.3 5 5 C3.35 5 1.7 5 0 5 C0 3.35 0 1.7 0 0 Z " fill="#161616" transform="translate(140,130)"/>
<path d="M0 0 C1.65 0 3.3 0 5 0 C5 1.65 5 3.3 5 5 C3.35 5 1.7 5 0 5 C0 3.35 0 1.7 0 0 Z " fill="#161616" transform="translate(195,125)"/>
<path d="M0 0 C1.65 0 3.3 0 5 0 C5 1.65 5 3.3 5 5 C3.35 5 1.7 5 0 5 C0 3.35 0 1.7 0 0 Z " fill="#4F1919" transform="translate(190,125)"/>
<path d="M0 0 C1.65 0 3.3 0 5 0 C5 1.65 5 3.3 5 5 C3.35 5 1.7 5 0 5 C0 3.35 0 1.7 0 0 Z " fill="#161616" transform="translate(190,120)"/>
<path d="M0 0 C1.65 0 3.3 0 5 0 C5 1.65 5 3.3 5 5 C3.35 5 1.7 5 0 5 C0 3.35 0 1.7 0 0 Z " fill="#393939" transform="translate(135,120)"/>
<path d="M0 0 C1.65 0 3.3 0 5 0 C5 1.65 5 3.3 5 5 C3.35 5 1.7 5 0 5 C0 3.35 0 1.7 0 0 Z " fill="#161616" transform="translate(215,115)"/>
<path d="M0 0 C1.65 0 3.3 0 5 0 C5 1.65 5 3.3 5 5 C3.35 5 1.7 5 0 5 C0 3.35 0 1.7 0 0 Z " fill="#393939" transform="translate(140,115)"/>
<path d="M0 0 C1.65 0 3.3 0 5 0 C5 1.65 5 3.3 5 5 C3.35 5 1.7 5 0 5 C0 3.35 0 1.7 0 0 Z " fill="#161616" transform="translate(220,110)"/>
<path d="M0 0 C1.65 0 3.3 0 5 0 C5 1.65 5 3.3 5 5 C3.35 5 1.7 5 0 5 C0 3.35 0 1.7 0 0 Z " fill="#161616" transform="translate(225,105)"/>
<path d="M0 0 C1.65 0 3.3 0 5 0 C5 1.65 5 3.3 5 5 C3.35 5 1.7 5 0 5 C0 3.35 0 1.7 0 0 Z " fill="#161616" transform="translate(230,100)"/>
<path d="M0 0 C1.65 0 3.3 0 5 0 C5 1.65 5 3.3 5 5 C3.35 5 1.7 5 0 5 C0 3.35 0 1.7 0 0 Z " fill="#393939" transform="translate(150,95)"/>
<path d="M0 0 C1.65 0 3.3 0 5 0 C5 1.65 5 3.3 5 5 C3.35 5 1.7 5 0 5 C0 3.35 0 1.7 0 0 Z " fill="#393939" transform="translate(155,90)"/>
</svg>
